<?xml version="1.0" encoding="UTF-8" standalone="no"?>
<svg width="986px" height="263px" viewBox="0 0 986 263" version="1.1" xmlns="http://www.w3.org/2000/svg" xmlns:xlink="http://www.w3.org/1999/xlink" xmlns:sketch="http://www.bohemiancoding.com/sketch/ns">
    <title>brim-header</title>
    <description>Created with Sketch (http://www.bohemiancoding.com/sketch)</description>
    <defs></defs>
    <g id="menu" stroke="none" stroke-width="1" fill="none" fill-rule="evenodd">
        <g id="Group" transform="translate(492.000000, 0.000000)">
            <path d="M0,263 L62.2573107,141.380295 L0,160.010117 L0,263 Z M0,263" id="Rectangle 5" fill="#2495C3"></path>
            <path d="M30.6640486,100.486915 L62.2573107,141.380295 L0,160.010117 L30.6640486,100.486915 Z M30.6640486,100.486915" id="Path 10" fill="#176E6E"></path>
            <path d="M30.6640486,200.19665 L62.2573107,237.710484 L0,263 L30.6640486,200.19665 Z M30.6640486,200.19665" id="Path 10" fill="#176E6E"></path>
            <path d="M62.2573107,141.380295 L30.6640486,100.858966 L62.2573107,44.6906656 L62.2573107,141.380295 Z M62.2573107,141.380295" id="Path 13" fill="#183944"></path>
            <path d="M62.2573107,237.710484 L30.6640486,200.568701 L62.2573107,141.020854 L62.2573107,237.710484 Z M62.2573107,237.710484" id="Path 13" fill="#183944"></path>
            <path d="M62.2573107,141.380295 L124.514621,31.6884016 L62.2573107,45.0501066 L62.2573107,141.380295 Z M62.2573107,141.380295" id="Rectangle 5" fill="#2495C3"></path>
            <path d="M62.2573107,237.710484 L124.514621,121.358895 L62.2573107,141.380295 L62.2573107,237.710484 Z M62.2573107,237.710484" id="Rectangle 5" fill="#2495C3"></path>
            <path d="M92.9213593,84.5460433 L124.514621,121.358895 L62.2573107,141.380295 L92.9213593,84.5460433 Z M92.9213593,84.5460433" id="Path 10" fill="#176E6E"></path>
            <path d="M122.995116,120.462891 L92.9213593,84.5460433 L124.514621,31.0192188 L122.995116,120.462891 Z M122.995116,120.462891" id="Path 13" fill="#183944"></path>
            <path d="M124.514621,210.694798 L92.9213593,177.596084 L124.514621,120.689713 L124.514621,210.694798 Z M124.514621,210.694798" id="Path 13" fill="#183944"></path>
            <path d="M122.656194,121.586311 L184.913505,17.0342065 L122.656194,31.7170204 L122.656194,121.586311 Z M122.656194,121.586311" id="Rectangle 5" fill="#2495C3"></path>
            <path d="M122.656194,211.455602 L184.913505,100.243802 L122.656194,121.586311 L122.656194,211.455602 Z M122.656194,211.455602" id="Rectangle 5" fill="#2495C3"></path>
            <path d="M153.320243,67.374991 L184.913505,100.243802 L122.656194,121.586311 L153.320243,67.374991 Z M153.320243,67.374991" id="Path 10" fill="#176E6E"></path>
            <path d="M153.320243,153.964133 L184.913505,183.453398 L122.656194,211.455602 L153.320243,153.964133 Z M153.320243,153.964133" id="Path 10" fill="#176E6E"></path>
            <path d="M184.913505,183.453398 L153.320243,154.287227 L184.913505,99.9333188 L184.913505,183.453398 Z M184.913505,183.453398" id="Path 13" fill="#183944"></path>
            <path d="M184.913505,183.453398 L247.170816,77.5097157 L184.913505,100.243802 L184.913505,183.453398 Z M184.913505,183.453398" id="Rectangle 5" fill="#2495C3"></path>
            <path d="M215.577554,48.7214323 L247.170816,77.5097157 L184.913505,100.243802 L215.577554,48.7214323 Z M215.577554,48.7214323" id="Path 10" fill="#176E6E"></path>
            <path d="M247.170815,78.6699187 L215.577554,48.7214323 L247.170816,0.388546675 L247.170815,78.6699187 Z M247.170815,78.6699187" id="Path 13" fill="#183944"></path>
            <path d="M247.170816,153.773983 L216.113281,129.565431 L247.170816,76.9384478 L247.170816,153.773983 Z M247.170816,153.773983" id="Path 13" fill="#183944"></path>
        </g>
        <g id="Group" transform="translate(0.562500, 0.559071)">
            <path d="M0,262.198724 L62.0047634,140.949555 L0,159.522617 L0,262.198724 Z M0,262.198724" id="Rectangle 5" fill="#2495C3"></path>
            <path d="M30.5396596,100.180764 L62.0047634,140.949555 L0,159.522617 L30.5396596,100.180764 Z M30.5396596,100.180764" id="Path 10" fill="#176E6E"></path>
            <path d="M62.0047634,236.986256 L31.5396596,199.957633 L62.0047634,140.591209 L62.0047634,236.986256 Z M62.0047634,236.986256" id="Path 13" fill="#183944"></path>
            <path d="M62.0047634,236.986256 L124.009527,120.989154 L62.0047634,140.949555 L62.0047634,236.986256 Z M62.0047634,236.986256" id="Rectangle 5" fill="#2495C3"></path>
            <path d="M92.5444229,84.2884587 L124.009527,120.989154 L62.0047634,140.949555 L92.5444229,84.2884587 Z M92.5444229,84.2884587" id="Path 10" fill="#176E6E"></path>
            <path d="M92.5444229,177.055006 L124.009527,210.38645 L62.0047634,236.986256 L92.5444229,177.055006 Z M92.5444229,177.055006" id="Path 10" fill="#176E6E"></path>
            <path d="M122.486329,121.098152 L92.5444229,84.2884587 L124.009527,30.9247132 L122.486329,121.098152 Z M122.486329,121.098152" id="Path 13" fill="#183944"></path>
            <path d="M123.009527,210.052878 L92.5444229,177.055006 L124.009527,120.32201 L123.009527,210.052878 Z M123.009527,210.052878" id="Path 13" fill="#183944"></path>
            <path d="M122.158638,121.215877 L184.163402,16.9823088 L122.158638,31.6203889 L122.158638,121.215877 Z M122.158638,121.215877" id="Rectangle 5" fill="#2495C3"></path>
            <path d="M123.158638,210.811364 L184.163402,99.9383918 L122.158638,121.215877 L123.158638,210.811364 Z M123.158638,210.811364" id="Rectangle 5" fill="#2495C3"></path>
            <path d="M152.698298,67.169721 L184.163402,99.9383918 L122.158638,121.215877 L152.698298,67.169721 Z M152.698298,67.169721" id="Path 10" fill="#176E6E"></path>
            <path d="M184.163402,99.9383918 L152.698298,67.4918305 L184.163402,16.6727711 L184.163402,99.9383918 Z M184.163402,99.9383918" id="Path 13" fill="#183944"></path>
            <path d="M184.163402,182.894475 L153.698298,154.817164 L184.163402,99.6288542 L184.163402,182.894475 Z M184.163402,182.894475" id="Path 13" fill="#183944"></path>
            <path d="M184.163402,182.894475 L246.168165,77.2735686 L184.163402,99.9383918 L184.163402,182.894475 Z M184.163402,182.894475" id="Rectangle 5" fill="#2495C3"></path>
            <path d="M214.703061,48.5729938 L246.168165,77.2735686 L184.163402,99.9383918 L214.703061,48.5729938 Z M214.703061,48.5729938" id="Path 10" fill="#176E6E"></path>
            <path d="M214.703061,128.258922 L246.168165,153.590247 L184.163402,182.894475 L214.703061,128.258922 Z M214.703061,128.258922" id="Path 10" fill="#176E6E"></path>
            <path d="M246.168164,77.6587023 L214.703061,48.5729938 L246.168165,0.387362898 L246.168164,77.6587023 Z M246.168164,77.6587023" id="Path 13" fill="#183944"></path>
            <path d="M246.168164,153.830575 L214.703061,128.258922 L246.168165,76.7040411 L246.168164,153.830575 Z M246.168164,153.830575" id="Path 13" fill="#183944"></path>
        </g>
        <g id="Group" transform="translate(369.000000, 128.000000) scale(-1, 1) translate(-369.000000, -128.000000) translate(245.000000, 17.000000)">
            <path d="M0,143.711441 L62.2573107,28.418042 L0,40.4228829 L0,143.711441 Z M0,143.711441" id="Rectangle 5" fill="#2495C3"></path>
            <path d="M30.6640486,84.0156197 L62.2573107,125.027592 L0.452148438,142.964842 L30.6640486,84.0156197 Z M30.6640486,84.0156197" id="Path 10" fill="#176E6E"></path>
            <path d="M62.2573107,125.027592 L30.6640486,84.3887499 L62.2573107,28.0575586 L62.2573107,125.027592 Z M62.2573107,125.027592" id="Path 13" fill="#183944"></path>
            <path d="M62.2573107,221.637143 L30.6640486,184.387648 L62.2573107,124.667109 L62.2573107,221.637143 Z M62.2573107,221.637143" id="Path 13" fill="#183944"></path>
            <path d="M62.2573107,221.637143 L124.514621,104.94813 L62.2573107,125.027592 L62.2573107,221.637143 Z M62.2573107,221.637143" id="Rectangle 5" fill="#2495C3"></path>
            <path d="M92.9213593,68.0285188 L124.514621,104.94813 L62.2573107,125.027592 L92.9213593,68.0285188 Z M92.9213593,68.0285188" id="Path 10" fill="#176E6E"></path>
            <path d="M92.9213593,161.348408 L123.251955,193.981446 L62.2573107,221.637143 L92.9213593,161.348408 Z M92.9213593,161.348408" id="Path 10" fill="#176E6E"></path>
            <path d="M122.966796,104.804686 L92.9213593,68.0285188 L122.966796,15.2861328 L122.966796,104.804686 Z M122.966796,104.804686" id="Path 13" fill="#183944"></path>
            <path d="M123.118163,194.156248 L92.9213593,161.348408 L124.514621,104.277006 L123.118163,194.156248 Z M123.118163,194.156248" id="Path 13" fill="#183944"></path>
            <path d="M122.656194,105.176205 L184.913505,0.320894619 L122.656194,15.2187504 L122.656194,105.176205 Z M122.656194,105.176205" id="Rectangle 5" fill="#2495C3"></path>
            <path d="M122.656194,194.577146 L184.913505,83.7718021 L122.656194,105.176205 L122.656194,194.577146 Z M122.656194,194.577146" id="Rectangle 5" fill="#2495C3"></path>
            <path d="M153.320243,50.8076696 L184.913505,83.7718021 L122.656194,105.176205 L153.320243,50.8076696 Z M153.320243,50.8076696" id="Path 10" fill="#176E6E"></path>
            <path d="M184.913505,83.7718021 L153.320243,51.1317004 L184.913505,0.00951063635 L184.913505,83.7718021 Z M184.913505,83.7718021" id="Path 13" fill="#183944"></path>
            <path d="M184.913505,167.22271 L153.320243,137.971955 L184.913505,83.4604181 L184.913505,167.22271 Z M184.913505,167.22271" id="Path 13" fill="#183944"></path>
            <path d="M184.913505,167.22271 L247.170816,60.9717855 L184.913505,83.7718021 L184.913505,167.22271 Z M184.913505,167.22271" id="Rectangle 5" fill="#2495C3"></path>
            <path d="M215.577554,32.1000148 L247.170816,60.9717855 L184.913505,83.7718021 L215.577554,32.1000148 Z M215.577554,32.1000148" id="Path 10" fill="#176E6E"></path>
        </g>
        <g id="Group" transform="translate(862.000000, 131.500000) scale(-1, 1) translate(-862.000000, -131.500000) translate(738.000000, 0.000000)">
            <path d="M0,263 L62.2573107,141.380295 L0,160.010117 L0,263 Z M0,263" id="Rectangle 5" fill="#2495C3"></path>
            <path d="M30.6640486,200.19665 L62.2573107,237.710484 L0,263 L30.6640486,200.19665 Z M30.6640486,200.19665" id="Path 10" fill="#176E6E"></path>
            <path d="M62.2573107,141.380295 L30.6640486,100.858966 L62.2573107,44.6906656 L62.2573107,141.380295 Z M62.2573107,141.380295" id="Path 13" fill="#183944"></path>
            <path d="M62.2573107,237.710484 L30.6640486,200.568701 L62.2573107,141.020854 L62.2573107,237.710484 Z M62.2573107,237.710484" id="Path 13" fill="#183944"></path>
            <path d="M62.2573107,141.380295 L124.514621,31.6884016 L62.2573107,45.0501066 L62.2573107,141.380295 Z M62.2573107,141.380295" id="Rectangle 5" fill="#2495C3"></path>
            <path d="M62.2573107,237.710484 L124.514621,121.358895 L62.2573107,141.380295 L62.2573107,237.710484 Z M62.2573107,237.710484" id="Rectangle 5" fill="#2495C3"></path>
            <path d="M92.9213593,84.5460433 L124.514621,121.358895 L62.2573107,141.380295 L92.9213593,84.5460433 Z M92.9213593,84.5460433" id="Path 10" fill="#176E6E"></path>
            <path d="M124.514621,121.601563 L92.9213593,84.5460433 L124.514621,31.0192188 L124.514621,121.601563 Z M124.514621,121.601563" id="Path 13" fill="#183944"></path>
            <path d="M124.514621,210.694798 L93.8027344,178.533203 L124.514621,120.689713 L124.514621,210.694798 Z M124.514621,210.694798" id="Path 13" fill="#183944"></path>
            <path d="M122.656194,211.455602 L184.913505,100.243802 L122.656194,121.586311 L122.656194,211.455602 Z M122.656194,211.455602" id="Rectangle 5" fill="#2495C3"></path>
            <path d="M153.320243,67.374991 L184.913505,100.243802 L122.656194,121.586311 L153.320243,67.374991 Z M153.320243,67.374991" id="Path 10" fill="#176E6E"></path>
            <path d="M153.320243,153.964133 L184.913505,183.453398 L122.656194,211.455602 L153.320243,153.964133 Z M153.320243,153.964133" id="Path 10" fill="#176E6E"></path>
            <path d="M184.913505,183.453398 L153.320243,154.287227 L184.913505,99.9333188 L184.913505,183.453398 Z M184.913505,183.453398" id="Path 13" fill="#183944"></path>
            <path d="M184.913505,100.243802 L247.170816,0.959814594 L184.913505,17.0342065 L184.913505,100.243802 Z M184.913505,100.243802" id="Rectangle 5" fill="#2495C3"></path>
            <path d="M184.913505,183.453398 L247.170816,77.5097157 L184.913505,100.243802 L184.913505,183.453398 Z M184.913505,183.453398" id="Rectangle 5" fill="#2495C3"></path>
            <path d="M215.577554,48.7214323 L247.170816,77.5097157 L184.913505,100.243802 L215.577554,48.7214323 Z M215.577554,48.7214323" id="Path 10" fill="#176E6E"></path>
            <path d="M247.170815,78.5634734 L215.577554,48.7214323 L247.170816,0.388546675 L247.170815,78.5634734 Z M247.170815,78.5634734" id="Path 13" fill="#183944"></path>
            <path d="M247.170816,153.773983 L216.451172,129.375002 L247.170816,76.9384478 L247.170816,153.773983 Z M247.170816,153.773983" id="Path 13" fill="#183944"></path>
        </g>
    </g>
</svg>